# xmcd
#
# Track frame offsets:
#	150
#	41255
#	80190
#	117833
#	132625
#	169543
#	210983
#
# Disc length: 4281 seconds
#
# Revision: 1
# Processed by: cddbd v1.5.2PL0 Copyright (c) Steve Scherf et al.
# Submitted via: audiograbber 1.83.01
#
DISCID=5810b707
DTITLE=Bandgladesh - Have You Heard The Silence Of The
DYEAR=2016
DGENRE=
TTITLE0=Tree
TTITLE1=Grillo
TTITLE2=Pool
TTITLE3=Camel
TTITLE4=Sambarabe
TTITLE5=Have You Heard The Silence Of The
TTITLE6=Video (Daten-CD)
EXTD=
EXTT0=
EXTT1=
EXTT2=
EXTT3=
EXTT4=
EXTT5=
EXTT6=
PLAYORDER=
